<svg xmlns="http://www.w3.org/2000/svg" width="64" height="64" viewBox="0 0 64 64">
  <path fill="#becece" fill-rule="evenodd" d="M4,15.0072021 C4,13.898655 4.90230818,13 5.99306965,13 L58.0069304,13 C59.1076723,13 60,13.8860288 60,15.0072021 L60,48.3261312 C60,49.4346783 59.0976918,50.3333333 58.0069304,50.3333333 L5.99306965,50.3333333 C4.89232768,50.3333333 4,49.4473045 4,48.3261312 L4,15.0072021 Z M27.9519957,36.0495955 L24.0480043,31.9504045 C23.281901,31.1459961 22.0724021,31.1685477 21.3393395,31.993243 L14.6606605,39.506757 C13.9313734,40.3272049 14.2319883,41 15.3405355,41 L48.6594645,41 C49.7806378,41 50.0814787,40.3172807 49.3596128,39.4751038 L39.9737205,28.5248962 C39.2454516,27.6752491 38.0724021,27.6685477 37.3393395,28.493243 L30.6606605,36.006757 C29.9313734,36.8272049 28.7148874,36.8506318 27.9519957,36.0495955 Z"/>
</svg>
