<svg width="162" height="63" viewBox="0 0 162 63" fill="none" xmlns="http://www.w3.org/2000/svg">
<path d="M100.67 12C107.66 12 113.786 15.7059 117.205 21.2663L127.116 21.2377V25.4595L119.139 25.4597C119.581 26.8235 119.876 28.2532 120.007 29.7304L127.116 29.7106V33.9035L119.945 33.9037C119.768 35.3859 119.426 36.817 118.936 38.1777L127.145 38.1543V42.3761H116.837L116.838 42.3507C113.583 47.2519 108.174 50.5891 101.968 51H99.3727C93.5434 50.6141 88.4172 47.6465 85.119 43.2266C84.9589 42.9472 84.7553 42.5345 84.5084 41.9884L84.4797 41.9879C83.9062 40.8161 83.5446 39.755 83.3956 38.8043V38.796C82.9964 36.8425 81.5832 35.7689 79.156 35.5749L74.9164 35.6335V41.9879H70.634V20.6696H79.1129C85.4937 20.6696 87.678 24.7207 87.678 28.1223C87.678 30.3901 86.6045 32.1763 84.4581 33.4811C85.4662 34.1764 86.243 34.9713 86.7889 35.8657C86.9976 36.2079 87.1712 36.5621 87.3093 36.9284L87.3107 36.9218C87.8484 38.504 88.3031 39.6181 88.6749 40.2638C91.3674 43.9832 95.7371 46.4018 100.67 46.4018C108.853 46.4018 115.487 39.7457 115.487 31.535V31.5079C115.487 23.2971 108.853 16.641 100.67 16.641C96.2701 16.641 92.318 18.5653 89.6041 21.621L86.3112 18.3686C89.8623 14.4559 94.9804 12 100.67 12ZM100.527 21.2377C102.502 21.2377 104.35 21.7717 105.934 22.7022L103.537 26.255C102.641 25.7753 101.616 25.503 100.527 25.503C97.0245 25.503 94.1854 28.3192 94.1854 31.7929V31.8209C94.1854 35.2949 97.0245 38.1111 100.527 38.1111C103.293 38.1111 105.647 36.354 106.513 33.9035H100.272V29.7106H111.037C111.118 30.3243 111.158 31.0255 111.158 31.8142C111.158 32.0576 111.15 32.292 111.133 32.5178C110.778 38.0214 106.165 42.3761 100.527 42.3761C94.6573 42.3761 89.899 37.657 89.899 31.8353V31.7788C89.899 25.9571 94.6573 21.2377 100.527 21.2377ZM16.1569 21.2666L22.4374 30.7359L28.6758 21.2666H32.8909V42.3761H28.7179L28.6758 27.6593L22.4374 37.1206L16.199 27.6593V42.3761L12 42.3473V21.2666H16.1569ZM145.6 20.6696V24.9745L139.286 24.9157V41.9879H135.072V24.9157L128.744 24.9745V20.6696H145.6ZM51.2784 20.6696V24.9745L45.0577 24.9157V41.9879H40.9245V24.9157L34.7458 24.9745V20.6696H51.2784ZM61.3141 20.6696L69.8136 41.9879H65.5092L63.9256 37.7126H54.3959L52.7956 41.9879H48.5577L57.0335 20.6696H61.3141ZM146.53 35.0722C148.447 35.0722 150 36.5675 150 38.4119C150 40.2563 148.447 41.7521 146.53 41.7521C144.614 41.7521 143.061 40.2568 143.061 38.4124C143.061 36.568 144.614 35.0722 146.53 35.0722ZM146.53 36.4191C145.388 36.4191 144.461 37.3109 144.461 38.4111V38.4132C144.461 39.5131 145.388 40.4049 146.53 40.4049C147.673 40.4049 148.6 39.5131 148.6 38.4132V38.4111C148.6 37.3109 147.673 36.4191 146.53 36.4191ZM146.53 29.6431C148.447 29.6431 150 31.1384 150 32.9827C150 33.604 149.824 34.186 149.517 34.6843L148.347 33.938C148.509 33.6547 148.6 33.3295 148.6 32.9841V32.9819C148.6 31.882 147.673 30.9899 146.53 30.9899C145.388 30.9899 144.461 31.882 144.461 32.9819V32.9841C144.461 33.4585 144.633 33.8942 144.921 34.2364L143.755 34.9872C143.319 34.4289 143.061 33.7352 143.061 32.9833C143.061 31.1389 144.614 29.6431 146.53 29.6431ZM59.1855 24.9157L55.9853 33.4666H62.3528L59.1855 24.9157ZM79.1677 24.9157H74.9164V31.3874C77.7428 31.3483 79.156 31.3483 79.156 31.3874C80.2256 31.3582 83.3956 31.0734 83.4384 28.1223C83.3956 25.8123 81.4557 24.9745 79.1677 24.9157ZM143.77 28.3923C144.161 28.3923 144.478 28.6979 144.478 29.0747C144.478 29.4514 144.161 29.7567 143.77 29.7567C143.378 29.7567 143.061 29.4514 143.061 29.0747C143.061 28.6979 143.378 28.3923 143.77 28.3923Z" fill="#FFFFFF"/>
</svg>
